<?xml version="1.0" encoding="UTF-8" standalone="no"?>
<svg
   width="960"
   height="850"
   viewBox="0 0 960 850"
   style="fill:none;stroke:none;fill-rule:evenodd;clip-rule:evenodd;stroke-linecap:round;stroke-linejoin:round;stroke-miterlimit:1.5;"
   version="1.1"
   id="svg52"
   sodipodi:docname="Pourquoi apprendre avec Explorons la Data Science - visual selection.svg"
   inkscape:version="1.4 (86a8ad7, 2024-10-11)"
   xmlns:inkscape="http://www.inkscape.org/namespaces/inkscape"
   xmlns:sodipodi="http://sodipodi.sourceforge.net/DTD/sodipodi-0.dtd"
   xmlns="http://www.w3.org/2000/svg"
   xmlns:svg="http://www.w3.org/2000/svg">
  <defs
     id="defs52" />
  <sodipodi:namedview
     id="namedview52"
     pagecolor="#ffffff"
     bordercolor="#000000"
     borderopacity="0.25"
     inkscape:showpageshadow="2"
     inkscape:pageopacity="0.0"
     inkscape:pagecheckerboard="0"
     inkscape:deskcolor="#d1d1d1"
     showgrid="false"
     inkscape:zoom="0.6713355"
     inkscape:cx="304.61669"
     inkscape:cy="510.1771"
     inkscape:window-width="1920"
     inkscape:window-height="1009"
     inkscape:window-x="-8"
     inkscape:window-y="-8"
     inkscape:window-maximized="1"
     inkscape:current-layer="svg52" />
  <style
     class="text-font-style fontImports"
     data-font-family="Roboto"
     id="style1"></style>
  <g
     id="items"
     style="isolation: isolate">
    <g
       id="blend"
       style="mix-blend-mode: normal">
      <g
         id="g-root-cp_0_g-0_dkg1hg122rawy-fill"
         data-item-order="-645686"
         transform="translate(386.1484375, 361.986328125)">
        <g
           id="cp_0_g-0_dkg1hg122rawy-fill"
           stroke="none"
           fill="#666666">
          <g
             id="g1">
            <path
               d="M 21.107601 52.014C 27.683101 40.625 36.522801 31.3583 46.730001 24.4542L 54.449901 26.5798L 56.483801 18.7744C 79.158601 7.5383 106.506901 6.7275 130.590001 18.4689L 132.729 26.6798L 140.910001 24.4273C 162.692001 39.1247 175.589001 62.5794 177.593001 87.3017L 171.789001 93.0261L 177.731001 98.8864C 177.004001 111.563 173.382001 124.267 166.600001 136.014C 159.940001 147.55 150.956001 156.909 140.582001 163.84L 132.670001 161.662L 130.614001 169.553C 107.994601 180.535 80.828501 181.199 56.910701 169.458L 54.853701 161.564L 46.989001 163.729C 24.618701 148.724 11.569601 124.503 10.000001 99.1219L 15.7545 93.4461L 10.062301 87.8317C 10.956501 75.5907 14.559201 63.3562 21.107601 52.014Z"
               id="path1" />
          </g>
        </g>
      </g>
      <g
         id="g-root-cp_6_g-6_4ot18k122rbpo-fill"
         data-item-order="-645682"
         transform="translate(262.23828125, 205.99993896484375)">
        <g
           id="cp_6_g-6_4ot18k122rbpo-fill"
           stroke="none"
           fill="#e0cb15">
          <g
             id="g2">
            <path
               d="M 97.9006 42.073361C 134.397 21.035061 175.787 9.973361 217.913 10.000109L 217.86 94.032661C 198.375 94.020361 179.132 97.658361 161.106 104.686261L 180.892 138.956061L 191.285 132.956061L 178.357 182.566061L 128.931 168.956061L 139.323 162.956061L 119.601 128.796061C 104.8358 140.754061 92.325 155.354061 82.7445 171.920061L 10 129.853061C 31.0887 93.385661 61.4045 63.111761 97.9006 42.073361Z"
               id="path2" />
          </g>
        </g>
      </g>
      <g
         id="g-root-cp_5_g-5_9m078122r9c6-fill"
         data-item-order="-645676"
         transform="translate(230, 326)">
        <g
           id="cp_5_g-5_9m078122r9c6-fill"
           stroke="none"
           fill="#de8431">
          <g
             id="g3">
            <path
               d="M 10 130.003C 9.9995 87.8732 21.089 46.4855 42.1539 10L 114.928 52.0163C 105.3682 68.5748 98.9698 86.687 95.9797 105.4321L 135.402 105.4321L 135.402 93.4321L 171.901 129.432L 135.402 165.432L 135.402 153.432L 95.8028 153.432C 98.713 172.583 105.1761 191.094 114.93 207.987L 42.157 250.005C 21.0911 213.52 10.0005 172.133 10 130.003Z"
               id="path3" />
          </g>
        </g>
      </g>
      <g
         id="g-root-cp_4_g-4_1uuwk1w122r9xc-fill"
         data-item-order="-645670"
         transform="translate(262.0625, 513.55078125)">
        <g
           id="cp_4_g-4_1uuwk1w122r9xc-fill"
           stroke="none"
           fill="#7f64ea">
          <g
             id="g4">
            <path
               d="M 178.935 10L 191.863 59.6092L 181.47 53.6092L 161.665 87.9131C 179.568 94.8384 198.662 98.4248 217.995 98.4174L 218.027 182.45C 175.853 182.466 134.418 171.368 97.8978 150.274C 61.3772 129.18 31.0601 98.8352 10 62.2952L 82.8056 20.3331C 92.4693 37.0999 105.1323 51.8597 120.096 63.9131L 139.901 29.6092L 129.509 23.6092L 178.935 10Z"
               id="path4" />
          </g>
        </g>
      </g>
      <g
         id="g-root-cp_3_g-3_1lz9jt0122raq2-fill"
         data-item-order="-645664"
         transform="translate(470.0546875, 513.6484375)">
        <g
           id="cp_3_g-3_1lz9jt0122raq2-fill"
           stroke="none"
           fill="#1eabda">
          <g
             id="g5">
            <path
               d="M 130.023001 150.153001C 93.545001 171.232001 52.160301 182.337001 10.029401 182.352001L 10.000001 98.319501C 29.224101 98.312801 48.209201 94.752901 66.019301 87.891001L 46.226701 53.609201L 35.834401 59.609201L 48.761801 10.000001L 98.188301 23.609201L 87.796001 29.609201L 107.620901 63.947001C 122.642001 51.880601 135.353001 37.090501 145.048001 20.281601L 217.840001 62.268601C 196.789001 98.763501 166.502001 129.074001 130.023001 150.153001Z"
               id="path5" />
          </g>
        </g>
      </g>
      <g
         id="g-root-cp_2_g-2_1hjg1ok122rbic-fill"
         data-item-order="-645658"
         transform="translate(547.93359375, 326.052734375)">
        <g
           id="cp_2_g-2_1hjg1ok122rbic-fill"
           stroke="none"
           fill="#92bd39">
          <g
             id="g6">
            <path
               d="M 172.065 129.977C 172.059 172.096 160.97 213.471 139.911 249.947L 67.1365 207.93C 76.9607 190.914 83.4463 172.257 86.3252 152.959L 46.4991 152.959L 46.4991 164.959L 10 128.959L 46.4991 92.9588L 46.4991 104.9588L 86.0175 104.9589C 83.0014 86.3764 76.6342 68.4232 67.1565 51.9976L 139.942 10C 160.991 46.481 172.07 87.8591 172.065 129.977Z"
               id="path6" />
          </g>
        </g>
      </g>
      <g
         id="g-root-cp_1_g-1_18efx50122snpq-fill"
         data-item-order="-645652"
         transform="translate(470.05859375, 206)">
        <g
           id="cp_1_g-1_18efx50122snpq-fill"
           stroke="none"
           fill="#3cc583">
          <g
             id="g7">
            <path
               d="M 129.987 42.1799C 166.456 63.2459 196.739 93.5378 217.795 130.013L 145.018 172.025C 135.361 155.296 122.717 140.568 107.7814 128.537L 87.8515 163.057L 98.2438 169.057L 48.8173 182.666L 35.8899 133.056L 46.2823 139.057L 66.2121 104.5369C 48.3462 97.6258 29.2935 94.0398 10 94.0326L 10.0313 10C 52.1474 10.0157 93.5179 21.114 129.987 42.1799Z"
               id="path7" />
          </g>
        </g>
      </g>
      <g
         id="g-root-tx_parcours_24b5w122wwei-fill"
         data-item-order="0"
         transform="translate(602, 158)">
        <g
           id="tx_parcours_24b5w122wwei-fill"
           stroke="none"
           fill="#374840">
          <g
             id="g10">
            <text
               style="font: 15px Roboto, sans-serif; white-space: pre;"
               font-size="15px"
               font-family="Roboto, sans-serif"
               id="text10"><tspan
                 x="12"
                 y="28"
                 dominant-baseline="ideographic"
                 id="tspan7">Parcours </tspan><tspan
                 x="12"
                 y="46"
                 dominant-baseline="ideographic"
                 id="tspan8">pédagogiques </tspan><tspan
                 x="12"
                 y="64"
                 dominant-baseline="ideographic"
                 id="tspan9">progressifs pour les </tspan><tspan
                 x="12"
                 y="82"
                 dominant-baseline="ideographic"
                 id="tspan10">apprenants</tspan></text>
          </g>
        </g>
      </g>
      <g
         id="g-root-tx_testspou_4j6rgk122wxsf-fill"
         data-item-order="0"
         transform="translate(182, 170)">
        <g
           id="tx_testspou_4j6rgk122wxsf-fill"
           stroke="none"
           fill="#46432d">
          <g
             id="g13">
            <text
               style="font: 15px Roboto, sans-serif; white-space: pre;"
               font-size="15px"
               font-family="Roboto, sans-serif"
               id="text13"><tspan
                 x="29.53"
                 y="31"
                 dominant-baseline="ideographic"
                 id="tspan11">Tests pour évaluer </tspan><tspan
                 x="12.09"
                 y="49"
                 dominant-baseline="ideographic"
                 id="tspan12">les connaissances et </tspan><tspan
                 x="34.41"
                 y="67"
                 dominant-baseline="ideographic"
                 id="tspan13">suivre les progrès</tspan></text>
          </g>
        </g>
      </g>
      <g
         id="g-root-ic_3_m7yvlw122snpd-fill"
         data-item-order="0"
         transform="translate(344, 260)" />
      <g
         id="g-root-ic_2_90vouc122vime-fill"
         data-item-order="0"
         transform="translate(548, 260)" />
      <g
         id="g-root-tx_quizinte_hun9tw122ww7i-fill"
         data-item-order="0"
         transform="translate(182, 134)">
        <g
           id="tx_quizinte_hun9tw122ww7i-fill"
           stroke="none"
           fill="#e0cb15">
          <g
             id="g14">
            <text
               style="font: bold 20px Roboto, sans-serif; white-space: pre;"
               font-weight="bold"
               font-size="20px"
               font-family="Roboto, sans-serif"
               id="text14"><tspan
                 x="14.88"
                 y="34"
                 dominant-baseline="ideographic"
                 id="tspan14">Quiz interactifs</tspan></text>
          </g>
        </g>
      </g>
      <g
         id="g-root-tx_apprenti_8xrbes122wvlt-fill"
         data-item-order="0"
         transform="translate(602, 98)">
        <g
           id="tx_apprenti_8xrbes122wvlt-fill"
           stroke="none"
           fill="#3cc583">
          <g
             id="g16">
            <text
               style="font: bold 20px Roboto, sans-serif; white-space: pre;"
               font-weight="bold"
               font-size="20px"
               font-family="Roboto, sans-serif"
               id="text16"><tspan
                 x="12"
                 y="34"
                 dominant-baseline="ideographic"
                 id="tspan15">Apprentissage </tspan><tspan
                 x="12"
                 y="58"
                 dominant-baseline="ideographic"
                 id="tspan16">structuré</tspan></text>
          </g>
        </g>
      </g>
      <g
         id="g-root-tx_communau_1ltna10122wwso-fill"
         data-item-order="0"
         transform="translate(62, 386.0250244140625)">
        <g
           id="tx_communau_1ltna10122wwso-fill"
           stroke="none"
           fill="#de8431">
          <g
             id="g18">
            <text
               style="font: bold 20px Roboto, sans-serif; white-space: pre;"
               font-weight="bold"
               font-size="20px"
               font-family="Roboto, sans-serif"
               id="text18"><tspan x="100" y="34" text-anchor="middle" dominant-baseline="ideographic" id="text18-l0">Éditeur</tspan><tspan x="100" y="58" text-anchor="middle" dominant-baseline="ideographic" id="text18-l1">de code</tspan></text>
          </g>
        </g>
      </g>
      <g
         id="g-root-tx_contenut_v48cxw122wvm7-fill"
         data-item-order="0"
         transform="translate(746, 398)">
        <g
           id="tx_contenut_v48cxw122wvm7-fill"
           stroke="none"
           fill="#92bd39">
          <g
             id="g20">
            <text
               style="font: bold 20px Roboto, sans-serif; white-space: pre;"
               font-weight="bold"
               font-size="20px"
               font-family="Roboto, sans-serif"
               id="text20"><tspan
                 x="12"
                 y="34"
                 dominant-baseline="ideographic"
                 id="tspan19">Contenu </tspan><tspan
                 x="12"
                 y="58"
                 dominant-baseline="ideographic"
                 id="tspan20">théorique</tspan></text>
          </g>
        </g>
      </g>
      <g
         id="g-root-ic_1_1lw56dg122snpm-fill"
         data-item-order="0"
         transform="translate(248, 422)" />
      <g
         id="g-root-tx_exprienc_1lrruro122wxsb-fill"
         data-item-order="0"
         transform="translate(392, 410)">
        <g
           id="tx_exprienc_1lrruro122wxsb-fill"
           stroke="none"
           fill="#ffffff">
          <g
             id="g23">
            <text
               style="font: bold 20px Roboto, sans-serif; white-space: pre;"
               font-weight="bold"
               font-size="20px"
               font-family="Roboto, sans-serif"
               id="text23"><tspan
                 x="37.05"
                 y="34"
                 dominant-baseline="ideographic"
                 id="tspan21">Expérience </tspan><tspan
                 x="15.77"
                 y="58"
                 dominant-baseline="ideographic"
                 id="tspan22">d'apprentissage </tspan><tspan
                 x="44.74"
                 y="82"
                 dominant-baseline="ideographic"
                 id="tspan23">complète</tspan></text>
          </g>
        </g>
      </g>
      <g
         id="g-root-ic_sear_vczo122vgul-fill"
         data-item-order="0"
         transform="translate(644, 422.0250244140625)" />
      <g
         id="g-root-tx_interact_18it8qs122wv7t-fill"
         data-item-order="0"
         transform="translate(50, 446.0250244140625)">
        <g
           id="tx_interact_18it8qs122wv7t-fill"
           stroke="none"
           fill="#4c4034">
          <g
             id="g26">
            <text
               style="font: 15px Roboto, sans-serif; white-space: pre;"
               font-size="15px"
               font-family="Roboto, sans-serif"
               id="text26"><tspan x="100" y="31" text-anchor="middle" dominant-baseline="ideographic" id="text26-l0">Python, SQL et</tspan><tspan x="100" y="49" text-anchor="middle" dominant-baseline="ideographic" id="text26-l1">JavaScript exécutés</tspan><tspan x="100" y="67" text-anchor="middle" dominant-baseline="ideographic" id="text26-l2">dans le navigateur</tspan></text>
          </g>
        </g>
      </g>
      <g
         id="g-root-tx_concepts_m8lcp0122wx6o-fill"
         data-item-order="0"
         transform="translate(746, 458)">
        <g
           id="tx_concepts_m8lcp0122wx6o-fill"
           stroke="none"
           fill="#424736">
          <g
             id="g28">
            <text
               style="font: 15px Roboto, sans-serif; white-space: pre;"
               font-size="15px"
               font-family="Roboto, sans-serif"
               id="text28"><tspan
                 x="12"
                 y="28"
                 dominant-baseline="ideographic"
                 id="tspan27">Concepts expliqués </tspan><tspan
                 x="12"
                 y="46"
                 dominant-baseline="ideographic"
                 id="tspan28">avec clarté et rigueur</tspan></text>
          </g>
        </g>
      </g>
      <g
         id="g-root-tx_composan_zisww4122spa8-fill"
         data-item-order="0"
         transform="translate(212, 38)">
        <g
           id="tx_composan_zisww4122spa8-fill"
           stroke="none"
           fill="#484848">
          <g
             id="g29">
            <text
               style="font: 20px Roboto, sans-serif; white-space: pre;"
               font-size="20px"
               font-family="Roboto, sans-serif"
               id="text29"><tspan
                 x="17.18"
                 y="34"
                 dominant-baseline="ideographic"
                 id="tspan29">Composants d'une expérience d'apprentissage complète</tspan></text>
          </g>
        </g>
      </g>
      <g
         id="g-root-tx_applicat_v5hb44122wxsd-fill"
         data-item-order="0"
         transform="translate(602, 722)">
        <g
           id="tx_applicat_v5hb44122wxsd-fill"
           stroke="none"
           fill="#32444a">
          <g
             id="g32">
            <text
               style="font: 15px Roboto, sans-serif; white-space: pre;"
               font-size="15px"
               font-family="Roboto, sans-serif"
               id="text32"><tspan
                 x="12"
                 y="31"
                 dominant-baseline="ideographic"
                 id="tspan30">Application des </tspan><tspan
                 x="12"
                 y="49"
                 dominant-baseline="ideographic"
                 id="tspan31">connaissances sur </tspan><tspan
                 x="12"
                 y="67"
                 dominant-baseline="ideographic"
                 id="tspan32">des cas réels</tspan></text>
          </g>
        </g>
      </g>
      <g
         id="g-root-ic_down_8wid8k122u2o3-fill"
         data-item-order="0"
         transform="translate(344, 584)" />
      <g
         id="g-root-ic_2_1ur5pj8122u3gk-fill"
         data-item-order="0"
         transform="translate(548, 584)" />
      <g
         id="g-root-tx_ressourc_v7cqdg122wwsq-fill"
         data-item-order="0"
         transform="translate(170, 662)">
        <g
           id="tx_ressourc_v7cqdg122wwsq-fill"
           stroke="none"
           fill="#7f64ea">
          <g
             id="g34">
            <text
               style="font: bold 20px Roboto, sans-serif; white-space: pre;"
               font-weight="bold"
               font-size="20px"
               font-family="Roboto, sans-serif"
               id="text34"><tspan x="100" y="34" text-anchor="middle" dominant-baseline="ideographic" id="text34-l0">Glossaire et</tspan><tspan x="100" y="58" text-anchor="middle" dominant-baseline="ideographic" id="text34-l1">ressources</tspan></text>
          </g>
        </g>
      </g>
      <g
         id="g-root-tx_projetsp_18gxthg122ww7g-fill"
         data-item-order="0"
         transform="translate(602, 662)">
        <g
           id="tx_projetsp_18gxthg122ww7g-fill"
           stroke="none"
           fill="#1eabda">
          <g
             id="g36">
            <text
               style="font: bold 20px Roboto, sans-serif; white-space: pre;"
               font-weight="bold"
               font-size="20px"
               font-family="Roboto, sans-serif"
               id="text36"><tspan
                 x="12"
                 y="34"
                 dominant-baseline="ideographic"
                 id="tspan35">Projets </tspan><tspan
                 x="12"
                 y="58"
                 dominant-baseline="ideographic"
                 id="tspan36">pratiques</tspan></text>
          </g>
        </g>
      </g>
      <g
         id="g-root-tx_notebook_hwip38122wv7v-fill"
         data-item-order="0"
         transform="translate(182, 722)">
        <g
           id="tx_notebook_hwip38122wv7v-fill"
           stroke="none"
           fill="#443e5c">
          <g
             id="g39">
            <text
               style="font: 15px Roboto, sans-serif; white-space: pre;"
               font-size="15px"
               font-family="Roboto, sans-serif"
               id="text39"><tspan x="100" y="31" text-anchor="middle" dominant-baseline="ideographic" id="text39-l0">Définitions, livres,</tspan><tspan x="100" y="49" text-anchor="middle" dominant-baseline="ideographic" id="text39-l1">sites et outils</tspan><tspan x="100" y="67" text-anchor="middle" dominant-baseline="ideographic" id="text39-l2">sélectionnés</tspan></text>
          </g>
        </g>
      </g>
      <g
         id="g-root-cp_0_g-0_dkg1hg122rawy-stroke"
         data-item-order="-645686"
         transform="translate(386.1484375, 361.986328125)">
        <g
           id="cp_0_g-0_dkg1hg122rawy-stroke"
           fill="none"
           stroke-linecap="round"
           stroke-linejoin="round"
           stroke-miterlimit="4"
           stroke="#ffffff"
           stroke-width="2">
          <g
             id="g40">
            <path
               d="M 21.107601 52.014C 27.683101 40.625 36.522801 31.3583 46.730001 24.4542L 54.449901 26.5798L 56.483801 18.7744C 79.158601 7.5383 106.506901 6.7275 130.5897 18.4689L 132.729301 26.6798L 140.909901 24.4273C 162.692501 39.1247 175.589101 62.5794 177.592801 87.3017L 171.789001 93.0261L 177.730601 98.8864C 177.004201 111.5634 173.381901 124.2673 166.599901 136.014C 159.939501 147.5501 150.956001 156.9086 140.581601 163.84L 132.670301 161.6617L 130.614001 169.5527C 107.994601 180.5349 80.828501 181.1995 56.910701 169.4578L 54.853701 161.564L 46.989001 163.7295C 24.618701 148.724 11.569601 124.5033 10.000001 99.1219L 15.7545 93.4461L 10.062301 87.8317C 10.956501 75.5907 14.559201 63.3562 21.107601 52.014Z"
               id="path39" />
          </g>
        </g>
      </g>
      <g
         id="g-root-cp_6_g-6_4ot18k122rbpo-stroke"
         data-item-order="-645682"
         transform="translate(262.23828125, 205.99993896484375)">
        <g
           id="cp_6_g-6_4ot18k122rbpo-stroke"
           fill="none"
           stroke-linecap="round"
           stroke-linejoin="round"
           stroke-miterlimit="4"
           stroke="#ffffff"
           stroke-width="2">
          <g
             id="g41">
            <path
               d="M 97.9006 42.073361C 134.3967 21.035061 175.7874 9.973361 217.9131 10.000061L 217.8598 94.032661C 198.3752 94.020361 179.1325 97.658361 161.1064 104.686261L 180.8923 138.956461L 191.2846 132.956461L 178.3572 182.565661L 128.9308 168.956461L 139.3231 162.956461L 119.6006 128.796161C 104.8358 140.753861 92.325 155.353761 82.7445 171.920561L 10 129.852661C 31.0887 93.385661 61.4045 63.111761 97.9006 42.073361Z"
               id="path40" />
          </g>
        </g>
      </g>
      <g
         id="g-root-cp_5_g-5_9m078122r9c6-stroke"
         data-item-order="-645676"
         transform="translate(230, 326)">
        <g
           id="cp_5_g-5_9m078122r9c6-stroke"
           fill="none"
           stroke-linecap="round"
           stroke-linejoin="round"
           stroke-miterlimit="4"
           stroke="#ffffff"
           stroke-width="2">
          <g
             id="g42">
            <path
               d="M 10 130.0031C 9.9995 87.8732 21.089 46.4855 42.1539 10L 114.9283 52.0163C 105.3682 68.5748 98.9698 86.687 95.9797 105.4321L 135.4016 105.4321L 135.4016 93.4321L 171.9007 129.4321L 135.4016 165.4321L 135.4016 153.4321L 95.8028 153.4321C 98.713 172.5826 105.1761 191.0936 114.9303 207.9872L 42.157 250.0054C 21.0911 213.5204 10.0005 172.1329 10 130.0031Z"
               id="path41" />
          </g>
        </g>
      </g>
      <g
         id="g-root-cp_4_g-4_1uuwk1w122r9xc-stroke"
         data-item-order="-645670"
         transform="translate(262.0625, 513.55078125)">
        <g
           id="cp_4_g-4_1uuwk1w122r9xc-stroke"
           fill="none"
           stroke-linecap="round"
           stroke-linejoin="round"
           stroke-miterlimit="4"
           stroke="#ffffff"
           stroke-width="2">
          <g
             id="g43">
            <path
               d="M 178.9354 10L 191.8628 59.6092L 181.4705 53.6092L 161.6651 87.9131C 179.5677 94.8384 198.6617 98.4248 217.9951 98.4174L 218.0272 182.45C 175.8525 182.4661 134.4183 171.3683 97.8978 150.2744C 61.3772 129.1804 31.0601 98.8352 10 62.2952L 82.8056 20.3331C 92.4693 37.0999 105.1323 51.8597 120.0959 63.9131L 139.9013 29.6092L 129.5089 23.6092L 178.9354 10Z"
               id="path42" />
          </g>
        </g>
      </g>
      <g
         id="g-root-cp_3_g-3_1lz9jt0122raq2-stroke"
         data-item-order="-645664"
         transform="translate(470.0546875, 513.6484375)">
        <g
           id="cp_3_g-3_1lz9jt0122raq2-stroke"
           fill="none"
           stroke-linecap="round"
           stroke-linejoin="round"
           stroke-miterlimit="4"
           stroke="#ffffff"
           stroke-width="2">
          <g
             id="g44">
            <path
               d="M 130.023501 150.153101C 93.545001 171.232201 52.160301 182.337301 10.029401 182.352101L 10.000001 98.319501C 29.224101 98.312801 48.209201 94.752901 66.019301 87.891001L 46.226701 53.609201L 35.834401 59.609201L 48.761801 10.000001L 98.188301 23.609201L 87.796001 29.609201L 107.620901 63.947001C 122.642201 51.880601 135.352801 37.090501 145.048401 20.281601L 217.839701 62.268601C 196.788901 98.763501 166.502001 129.0739 130.023501 150.153101Z"
               id="path43" />
          </g>
        </g>
      </g>
      <g
         id="g-root-cp_2_g-2_1hjg1ok122rbic-stroke"
         data-item-order="-645658"
         transform="translate(547.93359375, 326.052734375)">
        <g
           id="cp_2_g-2_1hjg1ok122rbic-stroke"
           fill="none"
           stroke-linecap="round"
           stroke-linejoin="round"
           stroke-miterlimit="4"
           stroke="#ffffff"
           stroke-width="2">
          <g
             id="g45">
            <path
               d="M 172.0648 129.9775C 172.0593 172.0958 160.97 213.4711 139.9109 249.9467L 67.1365 207.9304C 76.9607 190.9143 83.4463 172.2574 86.3252 152.9589L 46.4991 152.9589L 46.4991 164.9589L 10 128.9589L 46.4991 92.9588L 46.4991 104.9588L 86.0175 104.9589C 83.0014 86.3764 76.6342 68.4232 67.1565 51.9976L 139.9416 10C 160.9915 46.481 172.0702 87.8591 172.0648 129.9775Z"
               id="path44" />
          </g>
        </g>
      </g>
      <g
         id="g-root-cp_1_g-1_18efx50122snpq-stroke"
         data-item-order="-645652"
         transform="translate(470.05859375, 206)">
        <g
           id="cp_1_g-1_18efx50122snpq-stroke"
           fill="none"
           stroke-linecap="round"
           stroke-linejoin="round"
           stroke-miterlimit="4"
           stroke="#ffffff"
           stroke-width="2">
          <g
             id="g46">
            <path
               d="M 129.9869 42.1799C 166.456 63.2459 196.7394 93.5378 217.7952 130.0126L 145.0183 172.0245C 135.3612 155.2956 122.7172 140.568 107.7814 128.5369L 87.8515 163.0565L 98.2438 169.0565L 48.8173 182.6657L 35.8899 133.0565L 46.2823 139.0565L 66.2121 104.5369C 48.3462 97.6258 29.2935 94.0398 10 94.0326L 10.0313 10C 52.1474 10.0157 93.5179 21.114 129.9869 42.1799Z"
               id="path45" />
          </g>
        </g>
      </g>
      <g
         id="g-root-tx_parcours_24b5w122wwei-stroke"
         data-item-order="0"
         transform="translate(602, 158)" />
      <g
         id="g-root-tx_testspou_4j6rgk122wxsf-stroke"
         data-item-order="0"
         transform="translate(182, 170)" />
      <g
         id="g-root-ic_3_m7yvlw122snpd-stroke"
         data-item-order="0"
         transform="translate(344, 260)">
        <g
           id="ic_3_m7yvlw122snpd-stroke"
           fill="none"
           stroke-linecap="round"
           stroke-linejoin="round"
           stroke-miterlimit="4"
           stroke="#ffffff"
           stroke-width="2">
          <g
             id="g47">
            <path
               d="M 43.8144 31.070801C 44.551201 29.48568 44.956001 27.7586 44.956001 25.951241C 44.956001 18.245239 37.597401 11.998292 28.52002 11.998292C 19.44264 11.998292 12.083981 18.245239 12.083981 25.951241C 12.083981 30.306999 14.435141 34.196602 18.118839 36.755402L 16.749199 44.9716L 25.008701 39.584999C 26.14006 39.793999 27.31488 39.904198 28.52002 39.904198C 29.466539 39.904198 30.3944 39.836201 31.297199 39.705799M 31.042999 41.6096C 31.042999 47.440399 36.611 52.167198 43.479401 52.167198C 44.390999 52.167198 45.2798 52.083801 46.135799 51.9258L 52.385399 56.001598L 51.349201 49.785C 54.1366 47.848801 55.915798 44.905602 55.915798 41.6096C 55.915798 35.778801 50.347801 31.052 43.479401 31.052C 36.611 31.052 31.042999 35.778801 31.042999 41.6096ZM 10 10M 39.503998 42.289799L 41.812 44.597801L 47.4538 38.9562M 24.78124 22.44278C 24.78124 20.79504 26.09944 19.312141 27.911961 19.312141C 29.5597 19.312141 31.042601 20.63026 31.042601 22.44278C 31.042601 24.090519 29.72448 25.57354 27.911961 25.57354L 27.911961 26.9631M 27.912161 31.5278C 27.6968 31.5278 27.48144 31.743 27.48144 31.958401C 27.48144 32.173798 27.6968 32.389198 27.912161 32.389198M 27.91206 31.5278C 28.12742 31.5278 28.342779 31.743 28.342779 31.958401C 28.342779 32.173798 28.12742 32.389198 27.91206 32.389198"
               id="path46" />
          </g>
        </g>
      </g>
      <g
         id="g-root-ic_2_90vouc122vime-stroke"
         data-item-order="0"
         transform="translate(548, 260)">
        <g
           id="ic_2_90vouc122vime-stroke"
           fill="none"
           stroke-linecap="round"
           stroke-linejoin="round"
           stroke-miterlimit="4"
           stroke="#ffffff"
           stroke-width="2">
          <g
             id="g48">
            <path
               d="M 11.714286 11.714286L 27.142857 11.714286L 27.142857 27.142857L 40.857143 27.142857L 40.857143 40.857143L 56.285713 40.857143L 56.285713 56.285713L 11.714286 56.285713L 11.714286 11.714286Z"
               id="path47" />
          </g>
        </g>
      </g>
      <g
         id="g-root-tx_quizinte_hun9tw122ww7i-stroke"
         data-item-order="0"
         transform="translate(182, 134)" />
      <g
         id="g-root-tx_apprenti_8xrbes122wvlt-stroke"
         data-item-order="0"
         transform="translate(602, 98)" />
      <g
         id="g-root-tx_communau_1ltna10122wwso-stroke"
         data-item-order="0"
         transform="translate(62, 386.0250244140625)" />
      <g
         id="g-root-tx_contenut_v48cxw122wvm7-stroke"
         data-item-order="0"
         transform="translate(746, 398)" />
      <g
         id="g-root-ic_1_1lw56dg122snpm-stroke"
         data-item-order="0"
         transform="translate(248, 422)">
        <g
           id="ic_1_1lw56dg122snpm-stroke"
           fill="none"
           stroke-linecap="round"
           stroke-linejoin="round"
           stroke-miterlimit="4"
           stroke="#ffffff"
           stroke-width="2">
          <g
             id="g49"><path d="M 26 22L 14 34L 26 46M 42 22L 54 34L 42 46M 37 18L 31 50" id="g49-path" /></g>
        </g>
      </g>
      <g
         id="g-root-tx_exprienc_1lrruro122wxsb-stroke"
         data-item-order="0"
         transform="translate(392, 410)" />
      <g
         id="g-root-ic_sear_vczo122vgul-stroke"
         data-item-order="0"
         transform="translate(644, 422.0250244140625)">
        <g
           id="ic_sear_vczo122vgul-stroke"
           fill="none"
           stroke-linecap="round"
           stroke-linejoin="round"
           stroke-miterlimit="4"
           stroke="#ffffff"
           stroke-width="2">
          <g
             id="g50">
            <path
               d="M 27 47.759998C 22.513447 46.091202 17.784643 45.165707 13 45.02C 11.895431 45.02 11 44.124569 11 43.02L 11 14C 11 12.895431 11.895431 12 13 12C 23.82 12.34 33 15.32 33 18.959999C 33 15.32 42.119999 12.34 53 12C 54.104568 12 55 12.895431 55 14L 55 28.98M 33 18.98L 33 24.98M 29 22.459999C 24.802313 21.038824 20.426722 20.210827 16 20M 29 28.52C 24.810371 27.059311 20.431957 26.210571 16 26M 26 33.5C 22.717789 32.704216 19.371244 32.202232 16 32M 24.66 39.18C 21.805859 38.576668 18.911514 38.182285 16 38M 42 21.02C 44.641495 20.505445 47.3139 20.164715 50 20M 29 40.02C 29.000002 47.199703 34.820297 53.02 42 53.02C 49.179703 53.02 55 47.199703 55 40.02C 55 32.840302 49.179703 27.02 42 27.02C 34.820297 27.02 29.000002 32.840302 29.000002 40.02M 50.700001 49.68L 57 55.98M 37 38L 37 35C 37 34.447716 37.447716 34 38 34L 46 34C 46.552284 34 47 34.447716 47 35L 47 38M 42 34.02L 42 46.02M 39 46.02L 45 46.02"
               id="path49" />
          </g>
        </g>
      </g>
      <g
         id="g-root-tx_interact_18it8qs122wv7t-stroke"
         data-item-order="0"
         transform="translate(50, 446.0250244140625)" />
      <g
         id="g-root-tx_concepts_m8lcp0122wx6o-stroke"
         data-item-order="0"
         transform="translate(746, 458)" />
      <g
         id="g-root-tx_composan_zisww4122spa8-stroke"
         data-item-order="0"
         transform="translate(212, 38)" />
      <g
         id="g-root-tx_applicat_v5hb44122wxsd-stroke"
         data-item-order="0"
         transform="translate(602, 722)" />
      <g
         id="g-root-ic_down_8wid8k122u2o3-stroke"
         data-item-order="0"
         transform="translate(344, 584)">
        <g
           id="ic_down_8wid8k122u2o3-stroke"
           fill="none"
           stroke-linecap="round"
           stroke-linejoin="round"
           stroke-miterlimit="4"
           stroke="#ffffff"
           stroke-width="2">
          <g
             id="g51"><path d="M 34 24C 30 20 22 19 14 20L 14 46C 22 45 30 46 34 50C 38 46 46 45 54 46L 54 20C 46 19 38 20 34 24M 34 24L 34 50" id="g51-path" /></g>
        </g>
      </g>
      <g
         id="g-root-ic_2_1ur5pj8122u3gk-stroke"
         data-item-order="0"
         transform="translate(548, 584)">
        <g
           id="ic_2_1ur5pj8122u3gk-stroke"
           fill="none"
           stroke-linecap="round"
           stroke-linejoin="round"
           stroke-miterlimit="4"
           stroke="#ffffff"
           stroke-width="2">
          <g
             id="g52">
            <path
               d="M 29.059999 25.307999C 28.356613 26.903687 27.183916 28.247301 25.697998 29.159998L 27.677999 39.48L 21.49 39.48L 19.734001 30.302C 16.215942 29.690422 13.443654 26.96526 12.771853 23.458204C 12.100054 19.951149 13.668999 16.394394 16.712 14.526L 17.938 20.92L 21.49 23.33L 23.9 19.779999L 22.674 13.384C 25.276871 13.835477 27.526892 15.460291 28.774094 17.78908C 30.021297 20.11787 30.126753 22.891222 29.059999 25.307999ZM 43.051998 14.592C 42.453999 17.282 39.290001 19.076 34.954002 18.112L 34.108002 21.914L 54.388 26.422001L 56.360001 17.549999L 43.051998 14.592ZM 39.015999 39.48L 42.504002 23.788L 48.278 25.071999L 44.911999 39.482002L 39.015999 39.482002ZM 56.5 52.66L 56.5 39.48L 11.5 39.48L 11.5 52.66C 11.5 53.740002 12.375999 54.618 13.456 54.618L 54.543999 54.618C 55.624001 54.618 56.5 53.740002 56.5 52.66ZM 36.933998 42.416C 36.933998 44.036404 35.620403 45.350002 34 45.350002C 32.379597 45.350002 31.066 44.036404 31.066 42.416L 31.066 39.482002L 36.933998 39.482002L 36.933998 42.416Z"
               id="path51" />
          </g>
        </g>
      </g>
      <g
         id="g-root-tx_ressourc_v7cqdg122wwsq-stroke"
         data-item-order="0"
         transform="translate(170, 662)" />
      <g
         id="g-root-tx_projetsp_18gxthg122ww7g-stroke"
         data-item-order="0"
         transform="translate(602, 662)" />
      <g
         id="g-root-tx_notebook_hwip38122wv7v-stroke"
         data-item-order="0"
         transform="translate(182, 722)" />
    </g>
  </g>
</svg>
